# xmcd
#
# Track frame offsets:
#	150
#	18649
#	32773
#	52670
#	67704
#	90317
#	105572
#	130652
#	144248
#	163321
#
# Disc length: 2371 seconds
#
# Revision: 1
# Processed by: cddbd v1.5.1PL0 Copyright (c) Steve Scherf et al.
# Submitted via: audiograbber 1.83.01
#
DISCID=7209410a
DTITLE=Endless Avenue - Endless Avenue
DYEAR=2004
DGENRE=
TTITLE0=Cool breeze
TTITLE1=Boca grande
TTITLE2=Nr. 8235
TTITLE3=Gin suckin' buddy
TTITLE4=Big red sunset
TTITLE5=The day before the day before
TTITLE6=Anchor in my storm
TTITLE7=In my dreams
TTITLE8=Never swam
TTITLE9=Windy city moments
EXTD=
EXTT0=
EXTT1=
EXTT2=
EXTT3=
EXTT4=
EXTT5=
EXTT6=
EXTT7=
EXTT8=
EXTT9=
PLAYORDER=
